<svg width="32" height="32" viewBox="0 0 32 32" fill="none" xmlns="http://www.w3.org/2000/svg">
<path d="M19.5 8.5C18.7231 8.50007 17.9487 8.59026 17.1925 8.76875C16.9676 8.44012 16.7168 8.12997 16.4425 7.84125L17.3888 6.48875C17.617 6.16287 17.7065 5.75965 17.6374 5.36782C17.5684 4.97599 17.3465 4.62763 17.0206 4.39937C16.6948 4.17112 16.2916 4.08168 15.8997 4.15071C15.5079 4.21975 15.1595 4.44162 14.9313 4.7675L13.9838 6.125C13.1049 5.74018 12.1603 5.52799 11.2013 5.5L10.9138 3.875C10.8378 3.48984 10.6138 3.14983 10.2899 2.92795C9.96604 2.70607 9.56809 2.62001 9.18148 2.68824C8.79486 2.75646 8.45041 2.97354 8.22204 3.29287C7.99368 3.6122 7.89961 4.00834 7.96002 4.39625L8.24752 6.02125C7.35615 6.37549 6.54101 6.89742 5.84627 7.55875L4.48877 6.6075C4.16289 6.37925 3.75968 6.2898 3.36784 6.35884C2.97601 6.42788 2.62765 6.64974 2.3994 6.97563C2.17114 7.30151 2.0817 7.70472 2.15074 8.09655C2.21977 8.48839 2.44164 8.83675 2.76752 9.065L4.12502 10.0138C3.73916 10.8918 3.52692 11.8363 3.50002 12.795L1.87502 13.0825C1.50532 13.1473 1.17333 13.3483 0.944597 13.6459C0.715858 13.9434 0.606991 14.3159 0.639485 14.6899C0.67198 15.0638 0.843474 15.4119 1.12012 15.6656C1.39676 15.9193 1.75844 16.06 2.13377 16.06C2.22175 16.0598 2.30955 16.0523 2.39627 16.0375L4.02127 15.75C4.14397 16.0614 4.28764 16.3642 4.45127 16.6562C3.50229 17.6463 2.86504 18.8934 2.61867 20.2425C2.3723 21.5916 2.52766 22.9834 3.06545 24.245C3.60324 25.5066 4.49977 26.5824 5.6437 27.3388C6.78764 28.0953 8.12859 28.4991 9.50002 28.5H19.5C22.1522 28.5 24.6957 27.4464 26.5711 25.5711C28.4465 23.6957 29.5 21.1522 29.5 18.5C29.5 15.8478 28.4465 13.3043 26.5711 11.4289C24.6957 9.55357 22.1522 8.5 19.5 8.5ZM11 8.5C11.6215 8.5005 12.2361 8.6297 12.8051 8.87947C13.3741 9.12925 13.8852 9.49417 14.3063 9.95125C12.5269 11.0305 11.1266 12.6356 10.2988 14.545C10.0336 14.5149 9.76691 14.4999 9.50002 14.5C8.63051 14.4999 7.76864 14.6623 6.95877 14.9788C6.62289 14.2927 6.46717 13.5325 6.50627 12.7696C6.54537 12.0068 6.77801 11.2665 7.18227 10.6184C7.58653 9.97029 8.14911 9.43577 8.81702 9.06516C9.48493 8.69455 10.2362 8.50006 11 8.5ZM19.5 25.5H9.50002C8.43916 25.5 7.42174 25.0786 6.67159 24.3284C5.92145 23.5783 5.50002 22.5609 5.50002 21.5C5.50002 20.4391 5.92145 19.4217 6.67159 18.6716C7.42174 17.9214 8.43916 17.5 9.50002 17.5H9.53502C9.52127 17.6375 9.51002 17.775 9.50252 17.9125C9.47931 18.3103 9.61509 18.7011 9.87999 18.9988C10.1449 19.2965 10.5172 19.4768 10.915 19.5C11.3128 19.5232 11.7036 19.3874 12.0013 19.1225C12.299 18.8576 12.4793 18.4853 12.5025 18.0875C12.529 17.6231 12.6018 17.1624 12.72 16.7125L12.7388 16.6437C13.0834 15.3837 13.7734 14.2451 14.7308 13.3565C15.6882 12.4678 16.875 11.8644 18.1572 11.6145C19.4393 11.3645 20.7658 11.4779 21.9869 11.9419C23.208 12.4059 24.2752 13.2019 25.0679 14.2402C25.8605 15.2785 26.3472 16.5177 26.473 17.818C26.5987 19.1182 26.3585 20.4277 25.7795 21.5986C25.2005 22.7696 24.3057 23.7554 23.1961 24.4447C22.0865 25.1341 20.8063 25.4996 19.5 25.5Z" />
</svg>
