<svg width="32" height="32" viewBox="0 0 32 32" fill="none" xmlns="http://www.w3.org/2000/svg">
<path d="M30.5 12C30.5 12.3978 30.342 12.7794 30.0607 13.0607C29.7794 13.342 29.3979 13.5 29 13.5H27.5V15C27.5 15.3978 27.342 15.7794 27.0607 16.0607C26.7794 16.342 26.3979 16.5 26 16.5C25.6022 16.5 25.2207 16.342 24.9394 16.0607C24.6581 15.7794 24.5 15.3978 24.5 15V13.5H23C22.6022 13.5 22.2207 13.342 21.9394 13.0607C21.6581 12.7794 21.5 12.3978 21.5 12C21.5 11.6022 21.6581 11.2206 21.9394 10.9393C22.2207 10.658 22.6022 10.5 23 10.5H24.5V9C24.5 8.60218 24.6581 8.22064 24.9394 7.93934C25.2207 7.65804 25.6022 7.5 26 7.5C26.3979 7.5 26.7794 7.65804 27.0607 7.93934C27.342 8.22064 27.5 8.60218 27.5 9V10.5H29C29.3979 10.5 29.7794 10.658 30.0607 10.9393C30.342 11.2206 30.5 11.6022 30.5 12ZM18 7.5H18.5V8C18.5 8.39782 18.6581 8.77936 18.9394 9.06066C19.2207 9.34196 19.6022 9.5 20 9.5C20.3979 9.5 20.7794 9.34196 21.0607 9.06066C21.342 8.77936 21.5 8.39782 21.5 8V7.5H22C22.3979 7.5 22.7794 7.34196 23.0607 7.06066C23.342 6.77936 23.5 6.39782 23.5 6C23.5 5.60218 23.342 5.22064 23.0607 4.93934C22.7794 4.65804 22.3979 4.5 22 4.5H21.5V4C21.5 3.60218 21.342 3.22064 21.0607 2.93934C20.7794 2.65804 20.3979 2.5 20 2.5C19.6022 2.5 19.2207 2.65804 18.9394 2.93934C18.6581 3.22064 18.5 3.60218 18.5 4V4.5H18C17.6022 4.5 17.2207 4.65804 16.9394 4.93934C16.6581 5.22064 16.5 5.60218 16.5 6C16.5 6.39782 16.6581 6.77936 16.9394 7.06066C17.2207 7.34196 17.6022 7.5 18 7.5ZM27.4763 18.7975C27.65 18.9992 27.767 19.2435 27.8151 19.5054C27.8632 19.7673 27.8407 20.0372 27.75 20.2875C27.0277 22.2588 25.8205 24.0165 24.2397 25.3982C22.659 26.78 20.7557 27.7413 18.7054 28.1935C16.6552 28.6457 14.5241 28.5742 12.5088 27.9856C10.4935 27.397 8.65887 26.3103 7.17429 24.8257C5.68971 23.3412 4.60298 21.5066 4.01439 19.4912C3.4258 17.4759 3.35431 15.3448 3.80651 13.2946C4.25871 11.2443 5.22005 9.34104 6.60179 7.76031C7.98354 6.17957 9.74118 4.97233 11.7125 4.25C11.9625 4.15868 12.2322 4.13549 12.4941 4.18282C12.7559 4.23015 13.0005 4.34628 13.2027 4.51931C13.4048 4.69234 13.5573 4.91604 13.6445 5.16746C13.7317 5.41887 13.7504 5.68896 13.6988 5.95C13.5664 6.6253 13.4998 7.31185 13.5 8C13.503 10.7839 14.6102 13.4528 16.5787 15.4213C18.5472 17.3898 21.2162 18.497 24 18.5C24.6869 18.4999 25.3722 18.4333 26.0463 18.3013C26.3072 18.2498 26.5772 18.2686 26.8285 18.3558C27.0797 18.443 27.3033 18.5954 27.4763 18.7975ZM23.75 21.5C20.2572 21.4318 16.9265 20.014 14.4563 17.5438C11.986 15.0735 10.5682 11.7428 10.5 8.25C9.37585 9.05128 8.43981 10.0879 7.75708 11.2878C7.07435 12.4877 6.66132 13.8219 6.54677 15.1977C6.43221 16.5734 6.61887 17.9576 7.09374 19.2539C7.56862 20.5502 8.32031 21.7274 9.29649 22.7035C10.2727 23.6797 11.4499 24.4314 12.7461 24.9063C14.0424 25.3812 15.4266 25.5678 16.8023 25.4533C18.1781 25.3387 19.5123 24.9257 20.7122 24.2429C21.9121 23.5602 22.9487 22.6242 23.75 21.5Z" />
</svg>
