<svg width="32" height="32" viewBox="0 0 32 32" fill="none" xmlns="http://www.w3.org/2000/svg">
<path d="M30 18.5H25.4862C25.495 18.3338 25.5 18.1675 25.5 18C25.5 15.4804 24.4991 13.0641 22.7175 11.2825C20.9359 9.50089 18.5196 8.5 16 8.5C13.4804 8.5 11.0641 9.50089 9.28249 11.2825C7.50089 13.0641 6.5 15.4804 6.5 18C6.5 18.1675 6.5 18.3338 6.51375 18.5H2C1.60218 18.5 1.22064 18.658 0.93934 18.9393C0.658035 19.2206 0.5 19.6022 0.5 20C0.5 20.3978 0.658035 20.7794 0.93934 21.0607C1.22064 21.342 1.60218 21.5 2 21.5H30C30.3978 21.5 30.7794 21.342 31.0607 21.0607C31.342 20.7794 31.5 20.3978 31.5 20C31.5 19.6022 31.342 19.2206 31.0607 18.9393C30.7794 18.658 30.3978 18.5 30 18.5ZM9.5 18C9.5 16.2761 10.1848 14.6228 11.4038 13.4038C12.6228 12.1848 14.2761 11.5 16 11.5C17.7239 11.5 19.3772 12.1848 20.5962 13.4038C21.8152 14.6228 22.5 16.2761 22.5 18C22.5 18.1675 22.4913 18.3338 22.4788 18.5H9.52125C9.50875 18.3338 9.5 18.1675 9.5 18ZM27.5 25C27.5 25.3978 27.342 25.7794 27.0607 26.0607C26.7794 26.342 26.3978 26.5 26 26.5H6C5.60218 26.5 5.22064 26.342 4.93934 26.0607C4.65804 25.7794 4.5 25.3978 4.5 25C4.5 24.6022 4.65804 24.2206 4.93934 23.9393C5.22064 23.658 5.60218 23.5 6 23.5H26C26.3978 23.5 26.7794 23.658 27.0607 23.9393C27.342 24.2206 27.5 24.6022 27.5 25ZM1.5775 11.5263C1.7033 11.1491 1.97369 10.8373 2.32926 10.6594C2.68483 10.4815 3.09648 10.452 3.47375 10.5775L4.97375 11.0775C5.16266 11.1381 5.33768 11.2355 5.48867 11.3642C5.63966 11.4929 5.76363 11.6502 5.8534 11.8271C5.94317 12.004 5.99696 12.197 6.01165 12.3948C6.02634 12.5926 6.00164 12.7914 5.93898 12.9797C5.87632 13.1679 5.77695 13.3418 5.64661 13.4914C5.51628 13.6409 5.35757 13.7631 5.17968 13.851C5.00179 13.9388 4.80824 13.9904 4.61026 14.0029C4.41227 14.0154 4.21377 13.9885 4.02625 13.9238L2.52625 13.4238C2.33935 13.3615 2.16656 13.263 2.01773 13.1339C1.8689 13.0048 1.74695 12.8477 1.65885 12.6715C1.57075 12.4953 1.51822 12.3035 1.50426 12.107C1.4903 11.9105 1.51519 11.7131 1.5775 11.5263ZM8.5775 5.475C8.50935 5.28676 8.47956 5.08678 8.48991 4.88685C8.50025 4.68691 8.55052 4.49107 8.63773 4.31087C8.72495 4.13067 8.84736 3.96975 8.99775 3.83759C9.14814 3.70544 9.32345 3.60473 9.51337 3.54139C9.70329 3.47806 9.90397 3.45338 10.1036 3.46882C10.3032 3.48426 10.4977 3.5395 10.6756 3.63128C10.8535 3.72307 11.0113 3.84954 11.1395 4.00325C11.2678 4.15695 11.364 4.33478 11.4225 4.52625L11.9225 6.02625C11.9907 6.2145 12.0204 6.41448 12.0101 6.61441C11.9997 6.81435 11.9495 7.01019 11.8623 7.19039C11.775 7.37059 11.6526 7.53151 11.5022 7.66367C11.3519 7.79582 11.1765 7.89653 10.9866 7.95987C10.7967 8.0232 10.596 8.04787 10.3964 8.03244C10.1968 8.017 10.0023 7.96176 9.8244 7.86997C9.64648 7.77819 9.48874 7.65172 9.36046 7.49801C9.23218 7.34431 9.13597 7.16648 9.0775 6.975L8.5775 5.475ZM26.0775 12.975C26.0152 12.7881 25.9903 12.5908 26.0043 12.3943C26.0182 12.1978 26.0708 12.0059 26.1589 11.8297C26.247 11.6535 26.3689 11.4964 26.5177 11.3673C26.6666 11.2383 26.8394 11.1398 27.0263 11.0775L28.5263 10.5775C28.9023 10.4569 29.3108 10.4895 29.663 10.6682C30.0152 10.847 30.2827 11.1574 30.4074 11.5321C30.5322 11.9068 30.5041 12.3156 30.3293 12.6698C30.1545 13.0239 29.8471 13.2949 29.4737 13.4238L27.9737 13.9238C27.5965 14.0492 27.1848 14.0198 26.8293 13.8419C26.4737 13.664 26.2033 13.3522 26.0775 12.975ZM20.0775 6.02625L20.5775 4.52625C20.636 4.33478 20.7322 4.15695 20.8605 4.00325C20.9887 3.84954 21.1465 3.72307 21.3244 3.63128C21.5023 3.5395 21.6968 3.48426 21.8964 3.46882C22.096 3.45338 22.2967 3.47806 22.4866 3.54139C22.6765 3.60473 22.8519 3.70544 23.0023 3.83759C23.1526 3.96975 23.275 4.13067 23.3623 4.31087C23.4495 4.49107 23.4997 4.68691 23.5101 4.88685C23.5204 5.08678 23.4907 5.28676 23.4225 5.475L22.9225 6.975C22.864 7.16648 22.7678 7.34431 22.6395 7.49801C22.5113 7.65172 22.3535 7.77819 22.1756 7.86997C21.9977 7.96176 21.8032 8.017 21.6036 8.03244C21.404 8.04787 21.2033 8.0232 21.0134 7.95987C20.8235 7.89653 20.6481 7.79582 20.4977 7.66367C20.3474 7.53151 20.225 7.37059 20.1377 7.19039C20.0505 7.01019 20.0003 6.81435 19.9899 6.61441C19.9796 6.41448 20.0093 6.2145 20.0775 6.02625Z"/>
</svg>
