<svg width="32" height="32" viewBox="0 0 32 32" fill="none" xmlns="http://www.w3.org/2000/svg">
<path d="M26 3.5H6C5.33696 3.5 4.70107 3.76339 4.23223 4.23223C3.76339 4.70107 3.5 5.33696 3.5 6V26C3.5 26.663 3.76339 27.2989 4.23223 27.7678C4.70107 28.2366 5.33696 28.5 6 28.5H26C26.663 28.5 27.2989 28.2366 27.7678 27.7678C28.2366 27.2989 28.5 26.663 28.5 26V6C28.5 5.33696 28.2366 4.70107 27.7678 4.23223C27.2989 3.76339 26.663 3.5 26 3.5ZM25.5 6.5V24.53C24.4859 22.3676 22.762 20.6176 20.615 19.5713C21.5187 18.6601 22.1325 17.5018 22.379 16.2424C22.6255 14.983 22.4936 13.6788 22.0001 12.4942C21.5066 11.3096 20.6734 10.2976 19.6057 9.58569C18.5379 8.87381 17.2833 8.49394 16 8.49394C14.7167 8.49394 13.4621 8.87381 12.3943 9.58569C11.3266 10.2976 10.4934 11.3096 9.9999 12.4942C9.50636 13.6788 9.37454 14.983 9.62103 16.2424C9.86752 17.5018 10.4813 18.6601 11.385 19.5713C9.23801 20.6176 7.51405 22.3676 6.5 24.53V6.5H25.5ZM12.5 15C12.5 14.3078 12.7053 13.6311 13.0899 13.0555C13.4744 12.4799 14.0211 12.0313 14.6606 11.7664C15.3001 11.5015 16.0039 11.4322 16.6828 11.5673C17.3617 11.7023 17.9854 12.0356 18.4749 12.5251C18.9644 13.0146 19.2977 13.6383 19.4327 14.3172C19.5678 14.9961 19.4985 15.6999 19.2336 16.3394C18.9687 16.9789 18.5201 17.5256 17.9445 17.9101C17.3689 18.2947 16.6922 18.5 16 18.5C15.0717 18.5 14.1815 18.1313 13.5251 17.4749C12.8687 16.8185 12.5 15.9283 12.5 15ZM16 21.5C17.7156 21.4931 19.3805 22.081 20.7113 23.1637C21.5026 23.805 22.1561 24.5997 22.6325 25.5H9.3675C9.84391 24.5997 10.4974 23.805 11.2887 23.1637C12.6195 22.081 14.2844 21.4931 16 21.5Z" />
</svg>
