<svg width="85" height="84" viewBox="0 0 85 84" fill="none" xmlns="http://www.w3.org/2000/svg">
<g clip-path="url(#clip0_5307_391)">
<path d="M60.0857 43.0526C56.0307 44.807 54.1709 49.4698 55.9317 53.4674C57.6925 57.4649 62.4072 59.2834 66.4623 57.529C70.5173 55.7746 72.3771 51.1118 70.6163 47.1142C68.8555 43.1167 64.1408 41.2982 60.0857 43.0526Z" stroke="#B8952E" stroke-width="1.5948" stroke-linecap="round" stroke-linejoin="round"/>
<path d="M55.8324 47.4206L42.2129 42.1676" stroke="#B8952E" stroke-width="1.5948" stroke-linecap="round" stroke-linejoin="round"/>
<path d="M31.1355 69.9403L47.5855 28.6978" stroke="#B8952E" stroke-width="1.5948" stroke-linecap="round" stroke-linejoin="round"/>
<path d="M47.3327 14.1C43.2776 15.8543 41.4178 20.5172 43.1786 24.5147C44.9395 28.5123 49.6542 30.3307 53.7092 28.5763C57.7643 26.822 59.6241 22.1591 57.8632 18.1616C56.1024 14.164 51.3877 12.3456 47.3327 14.1Z" stroke="#B8952E" stroke-width="1.5948" stroke-linecap="round" stroke-linejoin="round"/>
<path d="M32.3843 38.3766L14.1313 31.3365" stroke="#B8952E" stroke-width="1.5948" stroke-linecap="round" stroke-linejoin="round"/>
</g>
<defs>
<clipPath id="clip0_5307_391">
<rect width="64" height="63.2741" fill="white" transform="matrix(-0.917788 0.397071 -0.403106 -0.915153 84.3354 58.4143)"/>
</clipPath>
</defs>
</svg>
